<?xml version="1.0" standalone="no"?>
<!DOCTYPE svg PUBLIC "-//W3C//DTD SVG 20010904//EN"
 "http://www.w3.org/TR/2001/REC-SVG-20010904/DTD/svg10.dtd">
<svg version="1.0" xmlns="http://www.w3.org/2000/svg"
 width="16.000000pt" height="16.000000pt" viewBox="0 0 16.000000 16.000000"
 preserveAspectRatio="xMidYMid meet">

<g transform="translate(0.000000,16.000000) scale(0.100000,-0.100000)"
fill="#000000" stroke="none">
<path d="M50 93 c-6 -27 -14 -54 -16 -60 -2 -7 1 -13 6 -13 6 0 10 11 10 24 0
15 7 26 18 28 15 4 18 0 17 -23 -1 -16 2 -29 7 -29 4 0 8 11 8 25 0 14 3 25 8
25 4 0 8 17 9 38 1 33 0 35 -8 12 -18 -46 -54 -55 -44 -10 11 49 -1 34 -15
-17z"/>
</g>
</svg>
